<?xml version="1.0" encoding="utf-8"?>
<!-- Generator: Adobe Illustrator 24.3.0, SVG Export Plug-In . SVG Version: 6.00 Build 0)  -->
<svg version="1.1" id="Слой_1" xmlns="http://www.w3.org/2000/svg" xmlns:xlink="http://www.w3.org/1999/xlink" x="0px" y="0px"
	 viewBox="0 0 50 50" style="enable-background:new 0 0 50 50;" xml:space="preserve">
<style type="text/css">
	.st0{fill:#2E2F22;}
</style>
<g>
	<path class="st0" d="M13,24.2c-0.5-0.2-1-0.3-1.6-0.3H5c-2.4,0-4.3,2-4.3,4.3v17c0,2.4,2,4.3,4.3,4.3h6.4c0.6,0,1.1-0.1,1.6-0.3
		V24.2z"/>
	<path class="st0" d="M48.3,36.1c0-0.8-0.2-1.6-0.4-2.1c1-1.3,1.5-2.7,1.5-4.2c-0.1-1.6-0.8-2.8-1.4-3.6c0.7-1.7,0.9-4.4-1.3-6.4
		c-1.7-1.5-4.5-2.2-8.4-2c-2.7,0.1-5.1,0.6-5.1,0.7h0c-0.5,0.1-1.1,0.2-1.6,0.3c0-0.7,0.1-2.3,1.3-6.1c1.5-4.5,1.4-7.9-0.3-10.1
		C30.7,0.2,27.9,0,27.1,0c-0.8,0-1.5,0.3-2,0.9c-1.2,1.3-1,3.8-0.9,5c-1.3,3.6-5,12.2-8.2,15V49l0.4,0c0.4,0.1,7.1,0.9,13.9,0.8
		c1.2,0.1,2.4,0.1,3.5,0.1c1.9,0,3.5-0.1,4.9-0.4c3.2-0.7,5.4-2,6.5-4c0.8-1.5,0.8-3,0.7-4C48,39.6,48.3,37.6,48.3,36.1z"/>
</g>
</svg>
